<?xml version="1.0" encoding="UTF-8"?>
<svg enable-background="new 0 0 101 101" version="1.1" viewBox="0 0 101 101" xml:space="preserve" xmlns="http://www.w3.org/2000/svg" xmlns:xlink="http://www.w3.org/1999/xlink">
	<defs>
		<circle id="a" cx="50.5" cy="50.5" r="50.5"/>
	</defs>
	<clipPath id="b">
		<use overflow="visible" xlink:href="#a"/>
	</clipPath>
	<g clip-path="url(#b)" fill="none" stroke="#F8EB60" stroke-miterlimit="10">
		<line x1="-13" x2="126.9" y1="-13.6" y2="8.6" stroke-width="1.3237"/>
		<line x1="-13" x2="126.9" y1="-8.8" y2="13.4" stroke-width="1.3237"/>
		<line x1="-13" x2="126.9" y1="-4" y2="18.2" stroke-width="1.3237"/>
		<line x1="-13" x2="126.9" y1=".8" y2="23" stroke-width="1.3237"/>
		<line x1="-13" x2="126.9" y1="5.6" y2="27.7" stroke-width="1.3237"/>
		<line x1="-13" x2="126.9" y1="10.3" y2="32.5" stroke-width="1.3237"/>
		<line x1="-13" x2="126.9" y1="15.1" y2="37.3" stroke-width="1.3237"/>
		<line x1="-13" x2="126.9" y1="19.9" y2="42.1" stroke-width="1.3237"/>
		<line x1="-13" x2="126.9" y1="24.7" y2="46.9" stroke-width="1.3237"/>
		<line x1="-13" x2="126.9" y1="29.4" y2="51.6" stroke-width="1.3237"/>
		<line x1="-13" x2="126.9" y1="34.2" y2="56.4" stroke-width="1.3237"/>
		<line x1="-13" x2="126.9" y1="39" y2="61.2" stroke-width="1.3237"/>
		<line x1="-13" x2="126.9" y1="43.8" y2="66" stroke-width="1.3237"/>
		<line x1="-13" x2="126.9" y1="48.6" y2="70.7" stroke-width="1.3237"/>
		<line x1="-13" x2="126.9" y1="53.3" y2="75.5" stroke-width="1.3237"/>
		<line x1="-13" x2="126.9" y1="58.1" y2="80.3" stroke-width="1.3237"/>
		<line x1="-13" x2="126.9" y1="62.9" y2="85.1" stroke-width="1.3237"/>
		<line x1="-13" x2="126.9" y1="67.7" y2="89.9" stroke-width="1.3237"/>
		<line x1="-13" x2="126.9" y1="72.5" y2="94.6" stroke-width="1.3237"/>
		<line x1="-13" x2="126.9" y1="77.2" y2="99.4" stroke-width="1.3237"/>
		<line x1="-13" x2="126.9" y1="82" y2="104.2" stroke-width="1.3237"/>
		<line x1="-13" x2="126.9" y1="86.8" y2="109" stroke-width="1.3237"/>
		<line x1="-13" x2="126.9" y1="91.6" y2="113.8" stroke-width="1.3237"/>
		<line x1="-13" x2="126.9" y1="96.3" y2="118.5" stroke-width="1.3237"/>
		<line x1="-93.9" x2="157.6" y1="28.8" y2="-67.1" stroke-width=".3309"/>
		<line x1="-93.9" x2="157.6" y1="37.3" y2="-58.6" stroke-width=".3309"/>
		<line x1="-93.9" x2="157.6" y1="45.8" y2="-50.1" stroke-width=".3309"/>
		<line x1="-93.9" x2="157.6" y1="54.4" y2="-41.5" stroke-width=".3309"/>
		<line x1="-93.9" x2="157.6" y1="62.9" y2="-33" stroke-width=".3309"/>
		<line x1="-93.9" x2="157.6" y1="71.4" y2="-24.5" stroke-width=".3309"/>
		<line x1="-93.9" x2="157.6" y1="80" y2="-15.9" stroke-width=".3309"/>
		<line x1="-93.9" x2="157.6" y1="88.5" y2="-7.4" stroke-width=".3309"/>
		<line x1="-93.9" x2="157.6" y1="97" y2="1.1" stroke-width=".3309"/>
		<line x1="-93.9" x2="157.6" y1="105.6" y2="9.7" stroke-width=".3309"/>
		<line x1="-93.9" x2="157.6" y1="114.1" y2="18.2" stroke-width=".3309"/>
		<line x1="-93.9" x2="157.6" y1="122.6" y2="26.7" stroke-width=".3309"/>
		<line x1="-93.9" x2="157.6" y1="131.2" y2="35.3" stroke-width=".3309"/>
		<line x1="-93.9" x2="157.6" y1="139.7" y2="43.8" stroke-width=".3309"/>
		<line x1="-93.9" x2="157.6" y1="148.2" y2="52.3" stroke-width=".3309"/>
		<line x1="-93.9" x2="157.6" y1="156.8" y2="60.8" stroke-width=".3309"/>
		<line x1="-93.9" x2="157.6" y1="165.3" y2="69.4" stroke-width=".3309"/>
		<line x1="-93.9" x2="157.6" y1="173.8" y2="77.9" stroke-width=".3309"/>
		<line x1="-93.9" x2="157.6" y1="182.4" y2="86.4" stroke-width=".3309"/>
		<line x1="-93.9" x2="157.6" y1="190.9" y2="95" stroke-width=".3309"/>
		<line x1="-93.9" x2="157.6" y1="199.4" y2="103.5" stroke-width=".3309"/>
		<line x1="-93.9" x2="157.6" y1="208" y2="112" stroke-width=".3309"/>
	</g>
</svg>
