<?xml version="1.0" encoding="UTF-8"?>
<svg enable-background="new 0 0 56.1 6.1" version="1.1" viewBox="0 0 56.1 6.1" xml:space="preserve" xmlns="http://www.w3.org/2000/svg">
				<g fill="#808285">
					<rect x="48.7" y=".3" width=".4" height="5.7"/>
					<polygon points="4.1 5.6 0.4 5.6 0.4 3.3 3.7 3.3 3.7 2.9 0 2.9 0 6 4.1 6"/>
					<rect y=".3" width="4.1" height=".4"/>
					<polygon points="10.2 5.2 6.2 0.3 5.8 0.3 5.8 6 6.3 6 6.3 0.9 10.3 6 10.6 6 10.6 0.3 10.2 0.3"/>
					<polygon points="12.8 6 13.2 6 13.2 3.4 16.5 3.4 16.5 3 13.2 3 13.2 0.6 16.9 0.6 16.9 0.3 12.8 0.3"/>
					<polygon points="19.8 0.2 17.1 6 17.5 6 17.9 5.3 18.1 4.7 18.3 4.4 19 2.8 19 2.8 20 0.7 20.8 2.6 20.8 2.6 22 5.3 22 5.3 22.4 6 22.8 6 20.2 0.2"/>
					<polygon points="28.6 5.2 24.6 0.3 24.2 0.3 24.2 6 24.6 6 24.6 0.9 28.7 6 29 6 29 0.3 28.6 0.3"/>
					<polygon points="30.4 0.6 32.4 0.6 32.4 6 32.9 6 32.9 0.6 34.9 0.6 34.9 0.3 30.4 0.3"/>
					<path d="m38.2 2.9c-1.4-0.3-1.7-0.6-1.7-1.3 0-0.6 0.6-1.1 1.4-1.1 0.6 0 1.2 0.2 1.7 0.6l0.3-0.3c-0.6-0.5-1.1-0.7-2-0.7-1.1 0-1.8 0.7-1.8 1.5 0 0.9 0.6 1.3 1.9 1.6s1.6 0.6 1.6 1.2c0 0.7-0.6 1.1-1.4 1.1s-1.4-0.3-2.1-0.9l-0.3 0.3c0.7 0.6 1.4 0.9 2.3 0.9 1.1 0 1.9-0.6 1.9-1.6 0.1-0.6-0.5-1-1.8-1.3z"/>
					<polygon points="55.7 0.3 55.7 5.2 51.7 0.3 51.3 0.3 51.3 6 51.7 6 51.7 0.9 55.8 6 56.1 6 56.1 0.3"/>
				</g>
	<g fill="#ADA591">
		<rect x="41.9" y=".2" width=".5" height="5.7"/>
		<polygon points="43.2 3.1 46.7 6.1 46.7 0"/>
	</g>
</svg>
