<?xml version="1.0" encoding="UTF-8"?>
<svg enable-background="new 0 0 151.7 136.9" version="1.1" viewBox="0 0 151.7 136.9" xml:space="preserve" xmlns="http://www.w3.org/2000/svg" xmlns:xlink="http://www.w3.org/1999/xlink">
	<defs>
		<circle id="b" cx="50.5" cy="50.5" r="50.5"/>
	</defs>
	<clipPath id="d">
		<use overflow="visible" xlink:href="#b"/>
	</clipPath>
	<g clip-path="url(#d)" fill="none" stroke="#94C0E9" stroke-miterlimit="10">
		<line x1="-39.7" x2="74.9" y1="50.1" y2="-33.1" stroke-width="1.3237"/>
		<line x1="-36.3" x2="78.3" y1="53.5" y2="-29.8" stroke-width="1.3237"/>
		<line x1="-33" x2="81.7" y1="56.9" y2="-26.4" stroke-width="1.3237"/>
		<line x1="-29.6" x2="85.1" y1="60.3" y2="-23" stroke-width="1.3237"/>
		<line x1="-26.2" x2="88.4" y1="63.6" y2="-19.6" stroke-width="1.3237"/>
		<line x1="-22.8" x2="91.8" y1="67" y2="-16.2" stroke-width="1.3237"/>
		<line x1="-19.4" x2="95.2" y1="70.4" y2="-12.9" stroke-width="1.3237"/>
		<line x1="-16.1" x2="98.6" y1="73.8" y2="-9.5" stroke-width="1.3237"/>
		<line x1="-12.7" x2="102" y1="77.2" y2="-6.1" stroke-width="1.3237"/>
		<line x1="-9.3" x2="105.3" y1="80.5" y2="-2.7" stroke-width="1.3237"/>
		<line x1="-5.9" x2="108.7" y1="83.9" y2=".7" stroke-width="1.3237"/>
		<line x1="-2.5" x2="112.1" y1="87.3" y2="4" stroke-width="1.3237"/>
		<line x1=".8" x2="115.5" y1="90.7" y2="7.4" stroke-width="1.3237"/>
		<line x1="4.2" x2="118.9" y1="94.1" y2="10.8" stroke-width="1.3237"/>
		<line x1="7.6" x2="122.2" y1="97.4" y2="14.2" stroke-width="1.3237"/>
		<line x1="11" x2="125.6" y1="100.8" y2="17.5" stroke-width="1.3237"/>
		<line x1="14.4" x2="129" y1="104.2" y2="20.9" stroke-width="1.3237"/>
		<line x1="17.7" x2="132.4" y1="107.6" y2="24.3" stroke-width="1.3237"/>
		<line x1="21.1" x2="135.7" y1="110.9" y2="27.7" stroke-width="1.3237"/>
		<line x1="24.5" x2="139.1" y1="114.3" y2="31.1" stroke-width="1.3237"/>
		<line x1="27.9" x2="142.5" y1="117.7" y2="34.4" stroke-width="1.3237"/>
		<line x1="31.2" x2="145.9" y1="121.1" y2="37.8" stroke-width="1.3237"/>
		<line x1="34.6" x2="149.3" y1="124.5" y2="41.2" stroke-width="1.3237"/>
		<line x1="38" x2="152.6" y1="127.8" y2="44.6" stroke-width="1.3237"/>
		<line x1="-67" x2="43.1" y1="137.3" y2="-108.4" stroke-width=".3309"/>
		<line x1="-60.9" x2="49.1" y1="143.3" y2="-102.4" stroke-width=".3309"/>
		<line x1="-54.9" x2="55.1" y1="149.3" y2="-96.4" stroke-width=".3309"/>
		<line x1="-48.9" x2="61.2" y1="155.4" y2="-90.3" stroke-width=".3309"/>
		<line x1="-42.8" x2="67.2" y1="161.4" y2="-84.3" stroke-width=".3309"/>
		<line x1="-36.8" x2="73.2" y1="167.4" y2="-78.3" stroke-width=".3309"/>
		<line x1="-30.8" x2="79.3" y1="173.5" y2="-72.2" stroke-width=".3309"/>
		<line x1="-24.7" x2="85.3" y1="179.5" y2="-66.2" stroke-width=".3309"/>
		<line x1="-18.7" x2="91.3" y1="185.5" y2="-60.2" stroke-width=".3309"/>
		<line x1="-12.7" x2="97.4" y1="191.6" y2="-54.1" stroke-width=".3309"/>
		<line x1="-6.6" x2="103.4" y1="197.6" y2="-48.1" stroke-width=".3309"/>
		<line x1="-.6" x2="109.4" y1="203.6" y2="-42.1" stroke-width=".3309"/>
		<line x1="5.4" x2="115.5" y1="209.7" y2="-36" stroke-width=".3309"/>
		<line x1="11.5" x2="121.5" y1="215.7" y2="-30" stroke-width=".3309"/>
		<line x1="17.5" x2="127.5" y1="221.7" y2="-24" stroke-width=".3309"/>
		<line x1="23.5" x2="133.6" y1="227.8" y2="-17.9" stroke-width=".3309"/>
		<line x1="29.6" x2="139.6" y1="233.8" y2="-11.9" stroke-width=".3309"/>
		<line x1="35.6" x2="145.6" y1="239.8" y2="-5.9" stroke-width=".3309"/>
		<line x1="41.6" x2="151.7" y1="245.9" y2=".2" stroke-width=".3309"/>
		<line x1="47.7" x2="157.7" y1="251.9" y2="6.2" stroke-width=".3309"/>
		<line x1="53.7" x2="163.7" y1="257.9" y2="12.2" stroke-width=".3309"/>
		<line x1="59.7" x2="169.8" y1="264" y2="18.3" stroke-width=".3309"/>
	</g>
	<defs>
		<circle id="a" cx="110.1" cy="95.4" r="41.6"/>
	</defs>
	<clipPath id="c">
		<use overflow="visible" xlink:href="#a"/>
	</clipPath>
	<g clip-path="url(#c)" fill="none" stroke="#FFBCCB" stroke-miterlimit="10">
		<line x1="36.9" x2="118.1" y1="107.8" y2="24.1"/>
		<line x1="40.1" x2="121.3" y1="110" y2="26.4"/>
		<line x1="43.3" x2="124.5" y1="112.3" y2="28.6"/>
		<line x1="46.5" x2="127.8" y1="114.6" y2="30.9"/>
		<line x1="49.8" x2="131" y1="116.8" y2="33.2"/>
		<line x1="53" x2="134.2" y1="119.1" y2="35.4"/>
		<line x1="56.2" x2="137.4" y1="121.3" y2="37.7"/>
		<line x1="59.4" x2="140.6" y1="123.6" y2="40"/>
		<line x1="62.6" x2="143.8" y1="125.9" y2="42.2"/>
		<line x1="65.8" x2="147" y1="128.1" y2="44.5"/>
		<line x1="69" x2="150.3" y1="130.4" y2="46.8"/>
		<line x1="72.3" x2="153.5" y1="132.7" y2="49"/>
		<line x1="75.5" x2="156.7" y1="134.9" y2="51.3"/>
		<line x1="78.7" x2="159.9" y1="137.2" y2="53.5"/>
		<line x1="81.9" x2="163.1" y1="139.4" y2="55.8"/>
		<line x1="85.1" x2="166.3" y1="141.7" y2="58.1"/>
		<line x1="88.3" x2="169.5" y1="144" y2="60.3"/>
		<line x1="91.6" x2="172.8" y1="146.2" y2="62.6"/>
		<line x1="94.8" x2="176" y1="148.5" y2="64.9"/>
		<line x1="98" x2="179.2" y1="150.8" y2="67.1"/>
		<line x1="101.2" x2="182.4" y1="153" y2="69.4"/>
		<line x1="104.4" x2="185.6" y1="155.3" y2="71.6"/>
		<line x1="107.6" x2="188.8" y1="157.6" y2="73.9"/>
		<line x1="110.8" x2="192.1" y1="159.8" y2="76.2"/>
		<line x1="27.1" x2="81.7" y1="182.2" y2="-32.4" stroke-width=".25"/>
		<line x1="32.8" x2="87.4" y1="186.3" y2="-28.4" stroke-width=".25"/>
		<line x1="38.5" x2="93.2" y1="190.3" y2="-24.4" stroke-width=".25"/>
		<line x1="44.3" x2="98.9" y1="194.4" y2="-20.3" stroke-width=".25"/>
		<line x1="50" x2="104.6" y1="198.4" y2="-16.3" stroke-width=".25"/>
		<line x1="55.8" x2="110.4" y1="202.4" y2="-12.2" stroke-width=".25"/>
		<line x1="61.5" x2="116.1" y1="206.5" y2="-8.2" stroke-width=".25"/>
		<line x1="67.2" x2="121.9" y1="210.5" y2="-4.1" stroke-width=".25"/>
		<line x1="73" x2="127.6" y1="214.6" y2="-.1" stroke-width=".25"/>
		<line x1="78.7" x2="133.3" y1="218.6" y2="3.9" stroke-width=".25"/>
		<line x1="84.5" x2="139.1" y1="222.6" y2="8" stroke-width=".25"/>
		<line x1="90.2" x2="144.8" y1="226.7" y2="12" stroke-width=".25"/>
		<line x1="96" x2="150.6" y1="230.7" y2="16.1" stroke-width=".25"/>
		<line x1="101.7" x2="156.3" y1="234.8" y2="20.1" stroke-width=".25"/>
		<line x1="107.4" x2="162.1" y1="238.8" y2="24.1" stroke-width=".25"/>
		<line x1="113.2" x2="167.8" y1="242.9" y2="28.2" stroke-width=".25"/>
		<line x1="118.9" x2="173.5" y1="246.9" y2="32.2" stroke-width=".25"/>
		<line x1="124.7" x2="179.3" y1="250.9" y2="36.3" stroke-width=".25"/>
		<line x1="130.4" x2="185" y1="255" y2="40.3" stroke-width=".25"/>
		<line x1="136.1" x2="190.8" y1="259" y2="44.4" stroke-width=".25"/>
		<line x1="141.9" x2="196.5" y1="263.1" y2="48.4" stroke-width=".25"/>
		<line x1="147.6" x2="202.2" y1="267.1" y2="52.4" stroke-width=".25"/>
	</g>
</svg>
