<?xml version="1.0" encoding="utf-8"?>
<!-- Generator: Adobe Illustrator 18.1.1, SVG Export Plug-In . SVG Version: 6.00 Build 0)  -->
<svg version="1.1" id="Layer_1" xmlns="http://www.w3.org/2000/svg" xmlns:xlink="http://www.w3.org/1999/xlink" x="0px" y="0px"
	 viewBox="0 0 32.3 32.3" enable-background="new 0 0 32.3 32.3" xml:space="preserve">
<g>
	<defs>
		<circle id="SVGID_3_" cx="16.1" cy="16.1" r="16.1"/>
	</defs>
	<clipPath id="SVGID_1_">
		<use xlink:href="#SVGID_3_"  overflow="visible"/>
	</clipPath>
	<g clip-path="url(#SVGID_1_)">
		<line fill="none" stroke="#DAA94A" stroke-width="0.5975" stroke-miterlimit="10" x1="-4.2" y1="-4.3" x2="40.5" y2="2.8"/>
		<line fill="none" stroke="#DAA94A" stroke-width="0.5975" stroke-miterlimit="10" x1="-4.2" y1="-2.8" x2="40.5" y2="4.3"/>
		<line fill="none" stroke="#DAA94A" stroke-width="0.5975" stroke-miterlimit="10" x1="-4.2" y1="-1.3" x2="40.5" y2="5.8"/>
		<line fill="none" stroke="#DAA94A" stroke-width="0.5975" stroke-miterlimit="10" x1="-4.2" y1="0.2" x2="40.5" y2="7.3"/>
		<line fill="none" stroke="#DAA94A" stroke-width="0.5975" stroke-miterlimit="10" x1="-4.2" y1="1.8" x2="40.5" y2="8.9"/>
		<line fill="none" stroke="#DAA94A" stroke-width="0.5975" stroke-miterlimit="10" x1="-4.2" y1="3.3" x2="40.5" y2="10.4"/>
		<line fill="none" stroke="#DAA94A" stroke-width="0.5975" stroke-miterlimit="10" x1="-4.2" y1="4.8" x2="40.5" y2="11.9"/>
		<line fill="none" stroke="#DAA94A" stroke-width="0.5975" stroke-miterlimit="10" x1="-4.2" y1="6.4" x2="40.5" y2="13.4"/>
		<line fill="none" stroke="#DAA94A" stroke-width="0.5975" stroke-miterlimit="10" x1="-4.2" y1="7.9" x2="40.5" y2="15"/>
		<line fill="none" stroke="#DAA94A" stroke-width="0.5975" stroke-miterlimit="10" x1="-4.2" y1="9.4" x2="40.5" y2="16.5"/>
		<line fill="none" stroke="#DAA94A" stroke-width="0.5975" stroke-miterlimit="10" x1="-4.2" y1="10.9" x2="40.5" y2="18"/>
		<line fill="none" stroke="#DAA94A" stroke-width="0.5975" stroke-miterlimit="10" x1="-4.2" y1="12.5" x2="40.5" y2="19.5"/>
		<line fill="none" stroke="#DAA94A" stroke-width="0.5975" stroke-miterlimit="10" x1="-4.2" y1="14" x2="40.5" y2="21.1"/>
		<line fill="none" stroke="#DAA94A" stroke-width="0.5975" stroke-miterlimit="10" x1="-4.2" y1="15.5" x2="40.5" y2="22.6"/>
		<line fill="none" stroke="#DAA94A" stroke-width="0.5975" stroke-miterlimit="10" x1="-4.2" y1="17" x2="40.5" y2="24.1"/>
		<line fill="none" stroke="#DAA94A" stroke-width="0.5975" stroke-miterlimit="10" x1="-4.2" y1="18.6" x2="40.5" y2="25.7"/>
		<line fill="none" stroke="#DAA94A" stroke-width="0.5975" stroke-miterlimit="10" x1="-4.2" y1="20.1" x2="40.5" y2="27.2"/>
		<line fill="none" stroke="#DAA94A" stroke-width="0.5975" stroke-miterlimit="10" x1="-4.2" y1="21.6" x2="40.5" y2="28.7"/>
		<line fill="none" stroke="#DAA94A" stroke-width="0.5975" stroke-miterlimit="10" x1="-4.2" y1="23.1" x2="40.5" y2="30.2"/>
		<line fill="none" stroke="#DAA94A" stroke-width="0.5975" stroke-miterlimit="10" x1="-4.2" y1="24.7" x2="40.5" y2="31.8"/>
		<line fill="none" stroke="#DAA94A" stroke-width="0.5975" stroke-miterlimit="10" x1="-4.2" y1="26.2" x2="40.5" y2="33.3"/>
		<line fill="none" stroke="#DAA94A" stroke-width="0.5975" stroke-miterlimit="10" x1="-4.2" y1="27.7" x2="40.5" y2="34.8"/>
		<line fill="none" stroke="#DAA94A" stroke-width="0.5975" stroke-miterlimit="10" x1="-4.2" y1="29.3" x2="40.5" y2="36.3"/>
		<line fill="none" stroke="#DAA94A" stroke-width="0.5975" stroke-miterlimit="10" x1="-4.2" y1="30.8" x2="40.5" y2="37.9"/>
		<line fill="none" stroke="#DAA94A" stroke-width="0.1494" stroke-miterlimit="10" x1="-30" y1="9.2" x2="50.4" y2="-21.4"/>
		<line fill="none" stroke="#DAA94A" stroke-width="0.1494" stroke-miterlimit="10" x1="-30" y1="11.9" x2="50.4" y2="-18.7"/>
		<line fill="none" stroke="#DAA94A" stroke-width="0.1494" stroke-miterlimit="10" x1="-30" y1="14.6" x2="50.4" y2="-16"/>
		<line fill="none" stroke="#DAA94A" stroke-width="0.1494" stroke-miterlimit="10" x1="-30" y1="17.4" x2="50.4" y2="-13.3"/>
		<line fill="none" stroke="#DAA94A" stroke-width="0.1494" stroke-miterlimit="10" x1="-30" y1="20.1" x2="50.4" y2="-10.5"/>
		<line fill="none" stroke="#DAA94A" stroke-width="0.1494" stroke-miterlimit="10" x1="-30" y1="22.8" x2="50.4" y2="-7.8"/>
		<line fill="none" stroke="#DAA94A" stroke-width="0.1494" stroke-miterlimit="10" x1="-30" y1="25.5" x2="50.4" y2="-5.1"/>
		<line fill="none" stroke="#DAA94A" stroke-width="0.1494" stroke-miterlimit="10" x1="-30" y1="28.3" x2="50.4" y2="-2.4"/>
		<line fill="none" stroke="#DAA94A" stroke-width="0.1494" stroke-miterlimit="10" x1="-30" y1="31" x2="50.4" y2="0.4"/>
		<line fill="none" stroke="#DAA94A" stroke-width="0.1494" stroke-miterlimit="10" x1="-30" y1="33.7" x2="50.4" y2="3.1"/>
		<line fill="none" stroke="#DAA94A" stroke-width="0.1494" stroke-miterlimit="10" x1="-30" y1="36.4" x2="50.4" y2="5.8"/>
		<line fill="none" stroke="#DAA94A" stroke-width="0.1494" stroke-miterlimit="10" x1="-30" y1="39.2" x2="50.4" y2="8.5"/>
		<line fill="none" stroke="#DAA94A" stroke-width="0.1494" stroke-miterlimit="10" x1="-30" y1="41.9" x2="50.4" y2="11.3"/>
		<line fill="none" stroke="#DAA94A" stroke-width="0.1494" stroke-miterlimit="10" x1="-30" y1="44.6" x2="50.4" y2="14"/>
		<line fill="none" stroke="#DAA94A" stroke-width="0.1494" stroke-miterlimit="10" x1="-30" y1="47.3" x2="50.4" y2="16.7"/>
		<line fill="none" stroke="#DAA94A" stroke-width="0.1494" stroke-miterlimit="10" x1="-30" y1="50.1" x2="50.4" y2="19.4"/>
		<line fill="none" stroke="#DAA94A" stroke-width="0.1494" stroke-miterlimit="10" x1="-30" y1="52.8" x2="50.4" y2="22.2"/>
		<line fill="none" stroke="#DAA94A" stroke-width="0.1494" stroke-miterlimit="10" x1="-30" y1="55.5" x2="50.4" y2="24.9"/>
		<line fill="none" stroke="#DAA94A" stroke-width="0.1494" stroke-miterlimit="10" x1="-30" y1="58.3" x2="50.4" y2="27.6"/>
		<line fill="none" stroke="#DAA94A" stroke-width="0.1494" stroke-miterlimit="10" x1="-30" y1="61" x2="50.4" y2="30.3"/>
		<line fill="none" stroke="#DAA94A" stroke-width="0.1494" stroke-miterlimit="10" x1="-30" y1="63.7" x2="50.4" y2="33.1"/>
		<line fill="none" stroke="#DAA94A" stroke-width="0.1494" stroke-miterlimit="10" x1="-30" y1="66.4" x2="50.4" y2="35.8"/>
	</g>
</g>
</svg>
