<?xml version="1.0" encoding="utf-8"?>
<!-- Generator: Adobe Illustrator 18.1.1, SVG Export Plug-In . SVG Version: 6.00 Build 0)  -->
<svg version="1.1" id="Layer_1" xmlns="http://www.w3.org/2000/svg" xmlns:xlink="http://www.w3.org/1999/xlink" x="0px" y="0px"
	 viewBox="0 0 19.9 29.3" enable-background="new 0 0 19.9 29.3" xml:space="preserve">
<g>
	<rect x="0.2" y="0.2" fill="none" stroke="#F69175" stroke-width="0.3768" stroke-miterlimit="10" width="19.5" height="28.9"/>
	<rect x="0.2" y="2.6" fill="none" stroke="#F69175" stroke-width="0.3768" stroke-miterlimit="10" width="15.2" height="20.8"/>
	<g>
		<defs>
			<rect id="SVGID_17_" x="0.2" y="2.6" width="15.2" height="20.8"/>
		</defs>
		<clipPath id="SVGID_1_">
			<use xlink:href="#SVGID_17_"  overflow="visible"/>
		</clipPath>
		<g clip-path="url(#SVGID_1_)">
			<defs>
				<ellipse id="SVGID_19_" cx="0" cy="11.8" rx="4.1" ry="4"/>
			</defs>
			<clipPath id="SVGID_2_">
				<use xlink:href="#SVGID_19_"  overflow="visible"/>
			</clipPath>
			<g clip-path="url(#SVGID_2_)">
				<g>
					<line fill="none" stroke="#F69175" stroke-width="0.25" stroke-miterlimit="10" x1="-5.8" y1="15.1" x2="5.6" y2="15.1"/>
					<line fill="none" stroke="#F69175" stroke-width="0.25" stroke-miterlimit="10" x1="-5.8" y1="13.1" x2="5.6" y2="13.1"/>
					<line fill="none" stroke="#F69175" stroke-width="0.25" stroke-miterlimit="10" x1="-5.8" y1="11.2" x2="5.6" y2="11.2"/>
					<line fill="none" stroke="#F69175" stroke-width="0.25" stroke-miterlimit="10" x1="-5.8" y1="9.3" x2="5.6" y2="9.3"/>
				</g>
				<g>
					<line fill="none" stroke="#F69175" stroke-width="0.25" stroke-miterlimit="10" x1="-5.8" y1="14" x2="5.6" y2="14"/>
					<line fill="none" stroke="#F69175" stroke-width="0.25" stroke-miterlimit="10" x1="-5.8" y1="12.1" x2="5.6" y2="12.1"/>
					<line fill="none" stroke="#F69175" stroke-width="0.25" stroke-miterlimit="10" x1="-5.8" y1="10.2" x2="5.6" y2="10.2"/>
					<line fill="none" stroke="#F69175" stroke-width="0.25" stroke-miterlimit="10" x1="-5.8" y1="8.3" x2="5.6" y2="8.3"/>
				</g>
			</g>
			<g clip-path="url(#SVGID_2_)">
				<g>
					<line fill="none" stroke="#F69175" stroke-width="0.1" stroke-miterlimit="10" x1="-6.2" y1="10.3" x2="1.9" y2="18.2"/>
					<line fill="none" stroke="#F69175" stroke-width="0.1" stroke-miterlimit="10" x1="-4.8" y1="8.9" x2="3.2" y2="16.8"/>
					<line fill="none" stroke="#F69175" stroke-width="0.1" stroke-miterlimit="10" x1="-3.4" y1="7.5" x2="4.6" y2="15.4"/>
					<line fill="none" stroke="#F69175" stroke-width="0.1" stroke-miterlimit="10" x1="-2" y1="6.2" x2="6" y2="14.1"/>
				</g>
				<g>
					<line fill="none" stroke="#F69175" stroke-width="0.1" stroke-miterlimit="10" x1="-4.8" y1="10.3" x2="3.3" y2="18.2"/>
					<line fill="none" stroke="#F69175" stroke-width="0.1" stroke-miterlimit="10" x1="-3.4" y1="8.9" x2="4.7" y2="16.8"/>
					<line fill="none" stroke="#F69175" stroke-width="0.1" stroke-miterlimit="10" x1="-2" y1="7.5" x2="6.1" y2="15.4"/>
					<line fill="none" stroke="#F69175" stroke-width="0.1" stroke-miterlimit="10" x1="-0.6" y1="6.2" x2="7.4" y2="14.1"/>
				</g>
			</g>
		</g>
		<g clip-path="url(#SVGID_1_)">
			<defs>
				<ellipse id="SVGID_21_" cx="10.5" cy="13.5" rx="4" ry="4.1"/>
			</defs>
			<clipPath id="SVGID_3_">
				<use xlink:href="#SVGID_21_"  overflow="visible"/>
			</clipPath>
			<g clip-path="url(#SVGID_3_)">
				<g>
					<line fill="none" stroke="#F69175" stroke-width="0.25" stroke-miterlimit="10" x1="7.2" y1="7.7" x2="7.2" y2="19.1"/>
					<line fill="none" stroke="#F69175" stroke-width="0.25" stroke-miterlimit="10" x1="9.1" y1="7.7" x2="9.1" y2="19.1"/>
					<line fill="none" stroke="#F69175" stroke-width="0.25" stroke-miterlimit="10" x1="11.1" y1="7.7" x2="11.1" y2="19.1"/>
					<line fill="none" stroke="#F69175" stroke-width="0.25" stroke-miterlimit="10" x1="13" y1="7.7" x2="13" y2="19.1"/>
				</g>
				<g>
					<line fill="none" stroke="#F69175" stroke-width="0.25" stroke-miterlimit="10" x1="8.2" y1="7.7" x2="8.2" y2="19.1"/>
					<line fill="none" stroke="#F69175" stroke-width="0.25" stroke-miterlimit="10" x1="10.1" y1="7.7" x2="10.1" y2="19.1"/>
					<line fill="none" stroke="#F69175" stroke-width="0.25" stroke-miterlimit="10" x1="12.1" y1="7.7" x2="12.1" y2="19.1"/>
					<line fill="none" stroke="#F69175" stroke-width="0.25" stroke-miterlimit="10" x1="14" y1="7.7" x2="14" y2="19.1"/>
				</g>
			</g>
			<g clip-path="url(#SVGID_3_)">
				<g>
					<line fill="none" stroke="#F69175" stroke-width="0.1" stroke-miterlimit="10" x1="12" y1="7.3" x2="4.1" y2="15.3"/>
					<line fill="none" stroke="#F69175" stroke-width="0.1" stroke-miterlimit="10" x1="13.4" y1="8.7" x2="5.5" y2="16.7"/>
					<line fill="none" stroke="#F69175" stroke-width="0.1" stroke-miterlimit="10" x1="14.7" y1="10.1" x2="6.8" y2="18.1"/>
					<line fill="none" stroke="#F69175" stroke-width="0.1" stroke-miterlimit="10" x1="16.1" y1="11.5" x2="8.2" y2="19.5"/>
				</g>
				<g>
					<line fill="none" stroke="#F69175" stroke-width="0.1" stroke-miterlimit="10" x1="12" y1="8.7" x2="4.1" y2="16.8"/>
					<line fill="none" stroke="#F69175" stroke-width="0.1" stroke-miterlimit="10" x1="13.4" y1="10.1" x2="5.5" y2="18.2"/>
					<line fill="none" stroke="#F69175" stroke-width="0.1" stroke-miterlimit="10" x1="14.7" y1="11.5" x2="6.8" y2="19.6"/>
					<line fill="none" stroke="#F69175" stroke-width="0.1" stroke-miterlimit="10" x1="16.1" y1="12.9" x2="8.2" y2="20.9"/>
				</g>
			</g>
		</g>
		<g clip-path="url(#SVGID_1_)">
			<defs>
				<ellipse id="SVGID_23_" cx="13.9" cy="3.3" rx="4.1" ry="4"/>
			</defs>
			<clipPath id="SVGID_4_">
				<use xlink:href="#SVGID_23_"  overflow="visible"/>
			</clipPath>
			<g clip-path="url(#SVGID_4_)">
				<g>
					<line fill="none" stroke="#F69175" stroke-width="0.25" stroke-miterlimit="10" x1="8.1" y1="6.6" x2="19.5" y2="6.6"/>
					<line fill="none" stroke="#F69175" stroke-width="0.25" stroke-miterlimit="10" x1="8.1" y1="4.7" x2="19.5" y2="4.7"/>
					<line fill="none" stroke="#F69175" stroke-width="0.25" stroke-miterlimit="10" x1="8.1" y1="2.7" x2="19.5" y2="2.7"/>
					<line fill="none" stroke="#F69175" stroke-width="0.25" stroke-miterlimit="10" x1="8.1" y1="0.8" x2="19.5" y2="0.8"/>
				</g>
				<g>
					<line fill="none" stroke="#F69175" stroke-width="0.25" stroke-miterlimit="10" x1="8.1" y1="5.6" x2="19.5" y2="5.6"/>
					<line fill="none" stroke="#F69175" stroke-width="0.25" stroke-miterlimit="10" x1="8.1" y1="3.7" x2="19.5" y2="3.7"/>
					<line fill="none" stroke="#F69175" stroke-width="0.25" stroke-miterlimit="10" x1="8.1" y1="1.7" x2="19.5" y2="1.7"/>
					<line fill="none" stroke="#F69175" stroke-width="0.25" stroke-miterlimit="10" x1="8.1" y1="-0.2" x2="19.5" y2="-0.2"/>
				</g>
			</g>
			<g clip-path="url(#SVGID_4_)">
				<g>
					<line fill="none" stroke="#F69175" stroke-width="0.1" stroke-miterlimit="10" x1="7.7" y1="1.8" x2="15.8" y2="9.7"/>
					<line fill="none" stroke="#F69175" stroke-width="0.1" stroke-miterlimit="10" x1="9.1" y1="0.4" x2="17.2" y2="8.3"/>
					<line fill="none" stroke="#F69175" stroke-width="0.1" stroke-miterlimit="10" x1="10.5" y1="-0.9" x2="18.6" y2="7"/>
					<line fill="none" stroke="#F69175" stroke-width="0.1" stroke-miterlimit="10" x1="11.9" y1="-2.3" x2="19.9" y2="5.6"/>
				</g>
				<g>
					<line fill="none" stroke="#F69175" stroke-width="0.1" stroke-miterlimit="10" x1="9.1" y1="1.8" x2="17.2" y2="9.7"/>
					<line fill="none" stroke="#F69175" stroke-width="0.1" stroke-miterlimit="10" x1="10.5" y1="0.4" x2="18.6" y2="8.3"/>
					<line fill="none" stroke="#F69175" stroke-width="0.1" stroke-miterlimit="10" x1="11.9" y1="-0.9" x2="20" y2="7"/>
					<line fill="none" stroke="#F69175" stroke-width="0.1" stroke-miterlimit="10" x1="13.3" y1="-2.3" x2="21.4" y2="5.6"/>
				</g>
			</g>
		</g>
		<g clip-path="url(#SVGID_1_)">
			<defs>
				<ellipse id="SVGID_25_" transform="matrix(0.7071 0.7071 -0.7071 0.7071 19.8245 -3.3681)" cx="14" cy="22.2" rx="4.1" ry="4"/>
			</defs>
			<clipPath id="SVGID_5_">
				<use xlink:href="#SVGID_25_"  overflow="visible"/>
			</clipPath>
			<g clip-path="url(#SVGID_5_)">
				<g>
					<line fill="none" stroke="#F69175" stroke-width="0.25" stroke-miterlimit="10" x1="7.6" y1="20.4" x2="15.6" y2="28.5"/>
					<line fill="none" stroke="#F69175" stroke-width="0.25" stroke-miterlimit="10" x1="8.9" y1="19.1" x2="17" y2="27.1"/>
					<line fill="none" stroke="#F69175" stroke-width="0.25" stroke-miterlimit="10" x1="10.3" y1="17.7" x2="18.3" y2="25.8"/>
					<line fill="none" stroke="#F69175" stroke-width="0.25" stroke-miterlimit="10" x1="11.7" y1="16.4" x2="19.7" y2="24.4"/>
				</g>
				<g>
					<line fill="none" stroke="#F69175" stroke-width="0.25" stroke-miterlimit="10" x1="8.3" y1="19.7" x2="16.3" y2="27.8"/>
					<line fill="none" stroke="#F69175" stroke-width="0.25" stroke-miterlimit="10" x1="9.6" y1="18.4" x2="17.7" y2="26.4"/>
					<line fill="none" stroke="#F69175" stroke-width="0.25" stroke-miterlimit="10" x1="11" y1="17" x2="19.1" y2="25.1"/>
					<line fill="none" stroke="#F69175" stroke-width="0.25" stroke-miterlimit="10" x1="12.4" y1="15.6" x2="20.4" y2="23.7"/>
				</g>
			</g>
			<g clip-path="url(#SVGID_5_)">
				<g>
					<line fill="none" stroke="#F69175" stroke-width="0.1" stroke-miterlimit="10" x1="10.7" y1="16.8" x2="10.8" y2="28"/>
					<line fill="none" stroke="#F69175" stroke-width="0.1" stroke-miterlimit="10" x1="12.6" y1="16.8" x2="12.7" y2="28.1"/>
					<line fill="none" stroke="#F69175" stroke-width="0.1" stroke-miterlimit="10" x1="14.6" y1="16.8" x2="14.7" y2="28.1"/>
					<line fill="none" stroke="#F69175" stroke-width="0.1" stroke-miterlimit="10" x1="16.5" y1="16.8" x2="16.6" y2="28.1"/>
				</g>
				<g>
					<line fill="none" stroke="#F69175" stroke-width="0.1" stroke-miterlimit="10" x1="11.7" y1="17.8" x2="11.8" y2="29"/>
					<line fill="none" stroke="#F69175" stroke-width="0.1" stroke-miterlimit="10" x1="13.6" y1="17.8" x2="13.7" y2="29.1"/>
					<line fill="none" stroke="#F69175" stroke-width="0.1" stroke-miterlimit="10" x1="15.6" y1="17.8" x2="15.7" y2="29.1"/>
					<line fill="none" stroke="#F69175" stroke-width="0.1" stroke-miterlimit="10" x1="17.5" y1="17.8" x2="17.6" y2="29.1"/>
				</g>
			</g>
		</g>
		<g clip-path="url(#SVGID_1_)">
			<defs>
				
					<ellipse id="SVGID_27_" transform="matrix(-0.7071 0.7071 -0.7071 -0.7071 21.079 31.0633)" cx="4.1" cy="19.9" rx="1.5" ry="1.5"/>
			</defs>
			<clipPath id="SVGID_6_">
				<use xlink:href="#SVGID_27_"  overflow="visible"/>
			</clipPath>
			<g clip-path="url(#SVGID_6_)">
				<g>
					
						<line fill="none" stroke="#F69175" stroke-width="9.077743e-002" stroke-miterlimit="10" x1="4.8" y1="17.6" x2="1.8" y2="20.5"/>
					
						<line fill="none" stroke="#F69175" stroke-width="9.077743e-002" stroke-miterlimit="10" x1="5.3" y1="18.1" x2="2.3" y2="21"/>
					
						<line fill="none" stroke="#F69175" stroke-width="9.077743e-002" stroke-miterlimit="10" x1="5.8" y1="18.6" x2="2.8" y2="21.5"/>
					
						<line fill="none" stroke="#F69175" stroke-width="9.077743e-002" stroke-miterlimit="10" x1="6.2" y1="19.1" x2="3.3" y2="22"/>
				</g>
				<g>
					
						<line fill="none" stroke="#F69175" stroke-width="9.077743e-002" stroke-miterlimit="10" x1="5" y1="17.8" x2="2.1" y2="20.7"/>
					
						<line fill="none" stroke="#F69175" stroke-width="9.077743e-002" stroke-miterlimit="10" x1="5.5" y1="18.3" x2="2.6" y2="21.2"/>
					
						<line fill="none" stroke="#F69175" stroke-width="9.077743e-002" stroke-miterlimit="10" x1="6" y1="18.8" x2="3.1" y2="21.7"/>
					
						<line fill="none" stroke="#F69175" stroke-width="9.077743e-002" stroke-miterlimit="10" x1="6.5" y1="19.3" x2="3.6" y2="22.2"/>
				</g>
			</g>
			<g clip-path="url(#SVGID_6_)">
				<g>
					
						<line fill="none" stroke="#F69175" stroke-width="3.631097e-002" stroke-miterlimit="10" x1="6.1" y1="18.7" x2="2" y2="18.7"/>
					
						<line fill="none" stroke="#F69175" stroke-width="3.631097e-002" stroke-miterlimit="10" x1="6.1" y1="19.4" x2="2" y2="19.4"/>
					
						<line fill="none" stroke="#F69175" stroke-width="3.631097e-002" stroke-miterlimit="10" x1="6.1" y1="20.1" x2="2" y2="20.1"/>
					
						<line fill="none" stroke="#F69175" stroke-width="3.631097e-002" stroke-miterlimit="10" x1="6.1" y1="20.8" x2="2" y2="20.9"/>
				</g>
				<g>
					
						<line fill="none" stroke="#F69175" stroke-width="3.631097e-002" stroke-miterlimit="10" x1="5.7" y1="19.1" x2="1.6" y2="19.1"/>
					
						<line fill="none" stroke="#F69175" stroke-width="3.631097e-002" stroke-miterlimit="10" x1="5.7" y1="19.8" x2="1.6" y2="19.8"/>
					
						<line fill="none" stroke="#F69175" stroke-width="3.631097e-002" stroke-miterlimit="10" x1="5.7" y1="20.5" x2="1.6" y2="20.5"/>
					
						<line fill="none" stroke="#F69175" stroke-width="3.631097e-002" stroke-miterlimit="10" x1="5.7" y1="21.2" x2="1.6" y2="21.2"/>
				</g>
			</g>
		</g>
		<g clip-path="url(#SVGID_1_)">
			<defs>
				<ellipse id="SVGID_29_" transform="matrix(0.7071 0.7071 -0.7071 0.7071 7.6803 -5.8985)" cx="11" cy="6.3" rx="1.5" ry="1.5"/>
			</defs>
			<clipPath id="SVGID_7_">
				<use xlink:href="#SVGID_29_"  overflow="visible"/>
			</clipPath>
			<g clip-path="url(#SVGID_7_)">
				<g>
					
						<line fill="none" stroke="#F69175" stroke-width="9.077743e-002" stroke-miterlimit="10" x1="8.6" y1="5.7" x2="11.6" y2="8.6"/>
					
						<line fill="none" stroke="#F69175" stroke-width="9.077743e-002" stroke-miterlimit="10" x1="9.1" y1="5.2" x2="12.1" y2="8.1"/>
					
						<line fill="none" stroke="#F69175" stroke-width="9.077743e-002" stroke-miterlimit="10" x1="9.6" y1="4.7" x2="12.5" y2="7.6"/>
					
						<line fill="none" stroke="#F69175" stroke-width="9.077743e-002" stroke-miterlimit="10" x1="10.1" y1="4.2" x2="13" y2="7.1"/>
				</g>
				<g>
					
						<line fill="none" stroke="#F69175" stroke-width="9.077743e-002" stroke-miterlimit="10" x1="8.9" y1="5.4" x2="11.8" y2="8.3"/>
					
						<line fill="none" stroke="#F69175" stroke-width="9.077743e-002" stroke-miterlimit="10" x1="9.4" y1="4.9" x2="12.3" y2="7.8"/>
					
						<line fill="none" stroke="#F69175" stroke-width="9.077743e-002" stroke-miterlimit="10" x1="9.9" y1="4.4" x2="12.8" y2="7.3"/>
					
						<line fill="none" stroke="#F69175" stroke-width="9.077743e-002" stroke-miterlimit="10" x1="10.4" y1="3.9" x2="13.3" y2="6.8"/>
				</g>
			</g>
			<g clip-path="url(#SVGID_7_)">
				<g>
					
						<line fill="none" stroke="#F69175" stroke-width="3.631097e-002" stroke-miterlimit="10" x1="9.8" y1="4.3" x2="9.8" y2="8.4"/>
					
						<line fill="none" stroke="#F69175" stroke-width="3.631097e-002" stroke-miterlimit="10" x1="10.5" y1="4.3" x2="10.5" y2="8.4"/>
					
						<line fill="none" stroke="#F69175" stroke-width="3.631097e-002" stroke-miterlimit="10" x1="11.2" y1="4.3" x2="11.2" y2="8.4"/>
					
						<line fill="none" stroke="#F69175" stroke-width="3.631097e-002" stroke-miterlimit="10" x1="11.9" y1="4.3" x2="11.9" y2="8.4"/>
				</g>
				<g>
					
						<line fill="none" stroke="#F69175" stroke-width="3.631097e-002" stroke-miterlimit="10" x1="10.1" y1="4.7" x2="10.2" y2="8.8"/>
					
						<line fill="none" stroke="#F69175" stroke-width="3.631097e-002" stroke-miterlimit="10" x1="10.8" y1="4.7" x2="10.9" y2="8.8"/>
					
						<line fill="none" stroke="#F69175" stroke-width="3.631097e-002" stroke-miterlimit="10" x1="11.5" y1="4.7" x2="11.6" y2="8.8"/>
					
						<line fill="none" stroke="#F69175" stroke-width="3.631097e-002" stroke-miterlimit="10" x1="12.2" y1="4.7" x2="12.3" y2="8.8"/>
				</g>
			</g>
		</g>
		<g clip-path="url(#SVGID_1_)">
			<defs>
				
					<ellipse id="SVGID_31_" transform="matrix(-0.7071 0.7071 -0.7071 -0.7071 34.91 9.9873)" cx="15.4" cy="12.2" rx="1.5" ry="1.5"/>
			</defs>
			<clipPath id="SVGID_8_">
				<use xlink:href="#SVGID_31_"  overflow="visible"/>
			</clipPath>
			<g clip-path="url(#SVGID_8_)">
				<g>
					
						<line fill="none" stroke="#F69175" stroke-width="9.077743e-002" stroke-miterlimit="10" x1="16" y1="9.9" x2="13.1" y2="12.8"/>
					
						<line fill="none" stroke="#F69175" stroke-width="9.077743e-002" stroke-miterlimit="10" x1="16.5" y1="10.4" x2="13.6" y2="13.3"/>
					
						<line fill="none" stroke="#F69175" stroke-width="9.077743e-002" stroke-miterlimit="10" x1="17" y1="10.9" x2="14.1" y2="13.8"/>
					
						<line fill="none" stroke="#F69175" stroke-width="9.077743e-002" stroke-miterlimit="10" x1="17.5" y1="11.4" x2="14.6" y2="14.3"/>
				</g>
				<g>
					
						<line fill="none" stroke="#F69175" stroke-width="9.077743e-002" stroke-miterlimit="10" x1="16.3" y1="10.2" x2="13.4" y2="13.1"/>
					
						<line fill="none" stroke="#F69175" stroke-width="9.077743e-002" stroke-miterlimit="10" x1="16.8" y1="10.6" x2="13.9" y2="13.6"/>
					
						<line fill="none" stroke="#F69175" stroke-width="9.077743e-002" stroke-miterlimit="10" x1="17.3" y1="11.1" x2="14.4" y2="14.1"/>
					
						<line fill="none" stroke="#F69175" stroke-width="9.077743e-002" stroke-miterlimit="10" x1="17.8" y1="11.6" x2="14.9" y2="14.6"/>
				</g>
			</g>
			<g clip-path="url(#SVGID_8_)">
				<g>
					
						<line fill="none" stroke="#F69175" stroke-width="3.631097e-002" stroke-miterlimit="10" x1="17.4" y1="11" x2="13.3" y2="11.1"/>
					
						<line fill="none" stroke="#F69175" stroke-width="3.631097e-002" stroke-miterlimit="10" x1="17.4" y1="11.7" x2="13.3" y2="11.8"/>
					
						<line fill="none" stroke="#F69175" stroke-width="3.631097e-002" stroke-miterlimit="10" x1="17.4" y1="12.4" x2="13.3" y2="12.5"/>
					
						<line fill="none" stroke="#F69175" stroke-width="3.631097e-002" stroke-miterlimit="10" x1="17.4" y1="13.1" x2="13.3" y2="13.2"/>
				</g>
				<g>
					
						<line fill="none" stroke="#F69175" stroke-width="3.631097e-002" stroke-miterlimit="10" x1="17" y1="11.4" x2="12.9" y2="11.4"/>
					
						<line fill="none" stroke="#F69175" stroke-width="3.631097e-002" stroke-miterlimit="10" x1="17" y1="12.1" x2="12.9" y2="12.1"/>
					
						<line fill="none" stroke="#F69175" stroke-width="3.631097e-002" stroke-miterlimit="10" x1="17" y1="12.8" x2="12.9" y2="12.8"/>
					
						<line fill="none" stroke="#F69175" stroke-width="3.631097e-002" stroke-miterlimit="10" x1="17" y1="13.5" x2="12.9" y2="13.5"/>
				</g>
			</g>
		</g>
	</g>
	<line fill="none" stroke="#F69175" stroke-width="0.3768" stroke-miterlimit="10" x1="1.8" y1="25.1" x2="9.9" y2="25.1"/>
	<line fill="none" stroke="#F69175" stroke-width="0.3768" stroke-miterlimit="10" x1="1.8" y1="26.9" x2="9.9" y2="26.9"/>
</g>
</svg>
