<?xml version="1.0" encoding="utf-8"?>
<!-- Generator: Adobe Illustrator 18.1.1, SVG Export Plug-In . SVG Version: 6.00 Build 0)  -->
<svg version="1.1" id="Layer_1" xmlns="http://www.w3.org/2000/svg" xmlns:xlink="http://www.w3.org/1999/xlink" x="0px" y="0px"
	 viewBox="0 0 12.5 29.3" enable-background="new 0 0 12.5 29.3" xml:space="preserve">
<g>
	<g>
		<polyline fill="none" stroke="#F69175" stroke-width="0.4" stroke-miterlimit="10" points="10.2,23.3 10.2,29.1 2.3,29.1 
			2.3,23.3 		"/>
		<polygon fill="none" stroke="#F69175" stroke-width="0.4" stroke-miterlimit="10" points="10.2,23.3 2.3,23.3 0.2,0.2 12.3,0.2 		
			"/>
	</g>
	<g>
		<defs>
			<polygon id="SVGID_9_" points="10.2,23.3 2.3,23.3 0.2,0.2 12.3,0.2 			"/>
		</defs>
		<clipPath id="SVGID_1_">
			<use xlink:href="#SVGID_9_"  overflow="visible"/>
		</clipPath>
		<g clip-path="url(#SVGID_1_)">
			<defs>
				<ellipse id="SVGID_11_" cx="9.4" cy="16.7" rx="4.1" ry="4"/>
			</defs>
			<clipPath id="SVGID_2_">
				<use xlink:href="#SVGID_11_"  overflow="visible"/>
			</clipPath>
			<g clip-path="url(#SVGID_2_)">
				<g>
					<line fill="none" stroke="#F69175" stroke-width="0.25" stroke-miterlimit="10" x1="3.5" y1="20" x2="14.9" y2="20"/>
					<line fill="none" stroke="#F69175" stroke-width="0.25" stroke-miterlimit="10" x1="3.5" y1="18.1" x2="14.9" y2="18.1"/>
					<line fill="none" stroke="#F69175" stroke-width="0.25" stroke-miterlimit="10" x1="3.5" y1="16.1" x2="14.9" y2="16.1"/>
					<line fill="none" stroke="#F69175" stroke-width="0.25" stroke-miterlimit="10" x1="3.5" y1="14.2" x2="14.9" y2="14.2"/>
				</g>
				<g>
					<line fill="none" stroke="#F69175" stroke-width="0.25" stroke-miterlimit="10" x1="3.5" y1="19" x2="14.9" y2="19"/>
					<line fill="none" stroke="#F69175" stroke-width="0.25" stroke-miterlimit="10" x1="3.5" y1="17.1" x2="14.9" y2="17.1"/>
					<line fill="none" stroke="#F69175" stroke-width="0.25" stroke-miterlimit="10" x1="3.5" y1="15.1" x2="14.9" y2="15.1"/>
					<line fill="none" stroke="#F69175" stroke-width="0.25" stroke-miterlimit="10" x1="3.5" y1="13.2" x2="14.9" y2="13.2"/>
				</g>
			</g>
			<g clip-path="url(#SVGID_2_)">
				<g>
					<line fill="none" stroke="#F69175" stroke-width="0.1" stroke-miterlimit="10" x1="3.1" y1="15.2" x2="11.2" y2="23.1"/>
					<line fill="none" stroke="#F69175" stroke-width="0.1" stroke-miterlimit="10" x1="4.5" y1="13.8" x2="12.6" y2="21.7"/>
					<line fill="none" stroke="#F69175" stroke-width="0.1" stroke-miterlimit="10" x1="5.9" y1="12.5" x2="14" y2="20.4"/>
					<line fill="none" stroke="#F69175" stroke-width="0.1" stroke-miterlimit="10" x1="7.3" y1="11.1" x2="15.4" y2="19"/>
				</g>
				<g>
					<line fill="none" stroke="#F69175" stroke-width="0.1" stroke-miterlimit="10" x1="4.5" y1="15.2" x2="12.6" y2="23.1"/>
					<line fill="none" stroke="#F69175" stroke-width="0.1" stroke-miterlimit="10" x1="5.9" y1="13.8" x2="14" y2="21.7"/>
					<line fill="none" stroke="#F69175" stroke-width="0.1" stroke-miterlimit="10" x1="7.3" y1="12.5" x2="15.4" y2="20.4"/>
					<line fill="none" stroke="#F69175" stroke-width="0.1" stroke-miterlimit="10" x1="8.7" y1="11.1" x2="16.8" y2="19"/>
				</g>
			</g>
		</g>
		<g clip-path="url(#SVGID_1_)">
			<defs>
				<ellipse id="SVGID_13_" transform="matrix(0.7071 0.7071 -0.7071 0.7071 6.4505 0.7916)" cx="2.3" cy="8.2" rx="4.1" ry="4"/>
			</defs>
			<clipPath id="SVGID_3_">
				<use xlink:href="#SVGID_13_"  overflow="visible"/>
			</clipPath>
			<g clip-path="url(#SVGID_3_)">
				<g>
					<line fill="none" stroke="#F69175" stroke-width="0.25" stroke-miterlimit="10" x1="-4.1" y1="6.4" x2="3.9" y2="14.4"/>
					<line fill="none" stroke="#F69175" stroke-width="0.25" stroke-miterlimit="10" x1="-2.8" y1="5" x2="5.3" y2="13.1"/>
					<line fill="none" stroke="#F69175" stroke-width="0.25" stroke-miterlimit="10" x1="-1.4" y1="3.7" x2="6.6" y2="11.7"/>
					<line fill="none" stroke="#F69175" stroke-width="0.25" stroke-miterlimit="10" x1="-0.1" y1="2.3" x2="8" y2="10.3"/>
				</g>
				<g>
					<line fill="none" stroke="#F69175" stroke-width="0.25" stroke-miterlimit="10" x1="-3.4" y1="5.7" x2="4.6" y2="13.7"/>
					<line fill="none" stroke="#F69175" stroke-width="0.25" stroke-miterlimit="10" x1="-2.1" y1="4.3" x2="6" y2="12.4"/>
					<line fill="none" stroke="#F69175" stroke-width="0.25" stroke-miterlimit="10" x1="-0.7" y1="2.9" x2="7.3" y2="11"/>
					<line fill="none" stroke="#F69175" stroke-width="0.25" stroke-miterlimit="10" x1="0.7" y1="1.6" x2="8.7" y2="9.6"/>
				</g>
			</g>
			<g clip-path="url(#SVGID_3_)">
				<g>
					<line fill="none" stroke="#F69175" stroke-width="0.1" stroke-miterlimit="10" x1="-1.1" y1="2.7" x2="-0.9" y2="14"/>
					<line fill="none" stroke="#F69175" stroke-width="0.1" stroke-miterlimit="10" x1="0.9" y1="2.7" x2="1" y2="14"/>
					<line fill="none" stroke="#F69175" stroke-width="0.1" stroke-miterlimit="10" x1="2.8" y1="2.7" x2="3" y2="14"/>
					<line fill="none" stroke="#F69175" stroke-width="0.1" stroke-miterlimit="10" x1="4.8" y1="2.7" x2="4.9" y2="14"/>
				</g>
				<g>
					<line fill="none" stroke="#F69175" stroke-width="0.1" stroke-miterlimit="10" x1="0" y1="3.7" x2="0.1" y2="15"/>
					<line fill="none" stroke="#F69175" stroke-width="0.1" stroke-miterlimit="10" x1="1.9" y1="3.7" x2="2" y2="15"/>
					<line fill="none" stroke="#F69175" stroke-width="0.1" stroke-miterlimit="10" x1="3.9" y1="3.7" x2="4" y2="15"/>
					<line fill="none" stroke="#F69175" stroke-width="0.1" stroke-miterlimit="10" x1="5.8" y1="3.8" x2="5.9" y2="15"/>
				</g>
			</g>
		</g>
		<g clip-path="url(#SVGID_1_)">
			<defs>
				
					<ellipse id="SVGID_15_" transform="matrix(-0.7071 0.7071 -0.7071 -0.7071 17.6176 0.8653)" cx="8.6" cy="4.1" rx="1.5" ry="1.5"/>
			</defs>
			<clipPath id="SVGID_4_">
				<use xlink:href="#SVGID_15_"  overflow="visible"/>
			</clipPath>
			<g clip-path="url(#SVGID_4_)">
				<g>
					
						<line fill="none" stroke="#F69175" stroke-width="9.077743e-002" stroke-miterlimit="10" x1="9.3" y1="1.8" x2="6.4" y2="4.7"/>
					
						<line fill="none" stroke="#F69175" stroke-width="9.077743e-002" stroke-miterlimit="10" x1="9.8" y1="2.2" x2="6.9" y2="5.2"/>
					
						<line fill="none" stroke="#F69175" stroke-width="9.077743e-002" stroke-miterlimit="10" x1="10.3" y1="2.7" x2="7.4" y2="5.7"/>
					
						<line fill="none" stroke="#F69175" stroke-width="9.077743e-002" stroke-miterlimit="10" x1="10.8" y1="3.2" x2="7.8" y2="6.2"/>
				</g>
				<g>
					<line fill="none" stroke="#F69175" stroke-width="9.077743e-002" stroke-miterlimit="10" x1="9.5" y1="2" x2="6.6" y2="4.9"/>
					<line fill="none" stroke="#F69175" stroke-width="9.077743e-002" stroke-miterlimit="10" x1="10" y1="2.5" x2="7.1" y2="5.4"/>
					<line fill="none" stroke="#F69175" stroke-width="9.077743e-002" stroke-miterlimit="10" x1="10.5" y1="3" x2="7.6" y2="5.9"/>
					<line fill="none" stroke="#F69175" stroke-width="9.077743e-002" stroke-miterlimit="10" x1="11" y1="3.5" x2="8.1" y2="6.4"/>
				</g>
			</g>
			<g clip-path="url(#SVGID_4_)">
				<g>
					
						<line fill="none" stroke="#F69175" stroke-width="3.631097e-002" stroke-miterlimit="10" x1="10.6" y1="2.9" x2="6.5" y2="2.9"/>
					
						<line fill="none" stroke="#F69175" stroke-width="3.631097e-002" stroke-miterlimit="10" x1="10.6" y1="3.6" x2="6.5" y2="3.6"/>
					
						<line fill="none" stroke="#F69175" stroke-width="3.631097e-002" stroke-miterlimit="10" x1="10.6" y1="4.3" x2="6.5" y2="4.3"/>
					<line fill="none" stroke="#F69175" stroke-width="3.631097e-002" stroke-miterlimit="10" x1="10.6" y1="5" x2="6.5" y2="5"/>
				</g>
				<g>
					
						<line fill="none" stroke="#F69175" stroke-width="3.631097e-002" stroke-miterlimit="10" x1="10.3" y1="3.2" x2="6.2" y2="3.3"/>
					<line fill="none" stroke="#F69175" stroke-width="3.631097e-002" stroke-miterlimit="10" x1="10.3" y1="3.9" x2="6.2" y2="4"/>
					
						<line fill="none" stroke="#F69175" stroke-width="3.631097e-002" stroke-miterlimit="10" x1="10.2" y1="4.7" x2="6.1" y2="4.7"/>
					
						<line fill="none" stroke="#F69175" stroke-width="3.631097e-002" stroke-miterlimit="10" x1="10.2" y1="5.4" x2="6.1" y2="5.4"/>
				</g>
			</g>
		</g>
	</g>
</g>
</svg>
