<?xml version="1.0" encoding="utf-8"?>
<!-- Generator: Adobe Illustrator 18.1.1, SVG Export Plug-In . SVG Version: 6.00 Build 0)  -->
<svg version="1.1" id="Layer_1" xmlns="http://www.w3.org/2000/svg" xmlns:xlink="http://www.w3.org/1999/xlink" x="0px" y="0px"
	 viewBox="0 0 9.8 29.3" enable-background="new 0 0 9.8 29.3" xml:space="preserve">
<g>
	<g>
		<rect x="0.2" y="0.2" fill="none" stroke="#F69175" stroke-width="0.4" stroke-miterlimit="10" width="9.4" height="28.9"/>
		<line fill="none" stroke="#F69175" stroke-width="0.4" stroke-miterlimit="10" x1="0.2" y1="10.8" x2="9.6" y2="10.8"/>
	</g>
	<g>
		<defs>
			<rect id="SVGID_9_" x="0.2" y="0.2" width="9.4" height="28.9"/>
		</defs>
		<clipPath id="SVGID_1_">
			<use xlink:href="#SVGID_9_"  overflow="visible"/>
		</clipPath>
		<g clip-path="url(#SVGID_1_)">
			<defs>
				<ellipse id="SVGID_11_" cx="1.5" cy="17.8" rx="4.1" ry="4"/>
			</defs>
			<clipPath id="SVGID_2_">
				<use xlink:href="#SVGID_11_"  overflow="visible"/>
			</clipPath>
			<g clip-path="url(#SVGID_2_)">
				<g>
					<line fill="none" stroke="#F69175" stroke-width="0.25" stroke-miterlimit="10" x1="-4.3" y1="21.1" x2="7.1" y2="21.1"/>
					<line fill="none" stroke="#F69175" stroke-width="0.25" stroke-miterlimit="10" x1="-4.3" y1="19.1" x2="7.1" y2="19.1"/>
					<line fill="none" stroke="#F69175" stroke-width="0.25" stroke-miterlimit="10" x1="-4.3" y1="17.2" x2="7.1" y2="17.2"/>
					<line fill="none" stroke="#F69175" stroke-width="0.25" stroke-miterlimit="10" x1="-4.3" y1="15.3" x2="7.1" y2="15.3"/>
				</g>
				<g>
					<line fill="none" stroke="#F69175" stroke-width="0.25" stroke-miterlimit="10" x1="-4.3" y1="20.1" x2="7.1" y2="20.1"/>
					<line fill="none" stroke="#F69175" stroke-width="0.25" stroke-miterlimit="10" x1="-4.3" y1="18.1" x2="7.1" y2="18.1"/>
					<line fill="none" stroke="#F69175" stroke-width="0.25" stroke-miterlimit="10" x1="-4.3" y1="16.2" x2="7.1" y2="16.2"/>
					<line fill="none" stroke="#F69175" stroke-width="0.25" stroke-miterlimit="10" x1="-4.3" y1="14.3" x2="7.1" y2="14.3"/>
				</g>
			</g>
			<g clip-path="url(#SVGID_2_)">
				<g>
					<line fill="none" stroke="#F69175" stroke-width="0.1" stroke-miterlimit="10" x1="-4.7" y1="16.3" x2="3.4" y2="24.2"/>
					<line fill="none" stroke="#F69175" stroke-width="0.1" stroke-miterlimit="10" x1="-3.3" y1="14.9" x2="4.8" y2="22.8"/>
					<line fill="none" stroke="#F69175" stroke-width="0.1" stroke-miterlimit="10" x1="-1.9" y1="13.5" x2="6.1" y2="21.4"/>
					<line fill="none" stroke="#F69175" stroke-width="0.1" stroke-miterlimit="10" x1="-0.5" y1="12.2" x2="7.5" y2="20.1"/>
				</g>
				<g>
					<line fill="none" stroke="#F69175" stroke-width="0.1" stroke-miterlimit="10" x1="-3.3" y1="16.3" x2="4.8" y2="24.2"/>
					<line fill="none" stroke="#F69175" stroke-width="0.1" stroke-miterlimit="10" x1="-1.9" y1="14.9" x2="6.2" y2="22.8"/>
					<line fill="none" stroke="#F69175" stroke-width="0.1" stroke-miterlimit="10" x1="-0.5" y1="13.5" x2="7.6" y2="21.4"/>
					<line fill="none" stroke="#F69175" stroke-width="0.1" stroke-miterlimit="10" x1="0.9" y1="12.2" x2="9" y2="20.1"/>
				</g>
			</g>
		</g>
		<g clip-path="url(#SVGID_1_)">
			<defs>
				<ellipse id="SVGID_13_" transform="matrix(0.7071 0.7071 -0.7071 0.7071 20.9867 3.2949)" cx="6.5" cy="27" rx="4.1" ry="4"/>
			</defs>
			<clipPath id="SVGID_3_">
				<use xlink:href="#SVGID_13_"  overflow="visible"/>
			</clipPath>
			<g clip-path="url(#SVGID_3_)">
				<g>
					<line fill="none" stroke="#F69175" stroke-width="0.25" stroke-miterlimit="10" x1="0.1" y1="25.2" x2="8.2" y2="33.2"/>
					<line fill="none" stroke="#F69175" stroke-width="0.25" stroke-miterlimit="10" x1="1.5" y1="23.8" x2="9.5" y2="31.9"/>
					<line fill="none" stroke="#F69175" stroke-width="0.25" stroke-miterlimit="10" x1="2.8" y1="22.5" x2="10.9" y2="30.5"/>
					<line fill="none" stroke="#F69175" stroke-width="0.25" stroke-miterlimit="10" x1="4.2" y1="21.1" x2="12.2" y2="29.1"/>
				</g>
				<g>
					<line fill="none" stroke="#F69175" stroke-width="0.25" stroke-miterlimit="10" x1="0.8" y1="24.5" x2="8.9" y2="32.5"/>
					<line fill="none" stroke="#F69175" stroke-width="0.25" stroke-miterlimit="10" x1="2.2" y1="23.1" x2="10.2" y2="31.2"/>
					<line fill="none" stroke="#F69175" stroke-width="0.25" stroke-miterlimit="10" x1="3.5" y1="21.7" x2="11.6" y2="29.8"/>
					<line fill="none" stroke="#F69175" stroke-width="0.25" stroke-miterlimit="10" x1="4.9" y1="20.4" x2="13" y2="28.4"/>
				</g>
			</g>
			<g clip-path="url(#SVGID_3_)">
				<g>
					<line fill="none" stroke="#F69175" stroke-width="0.1" stroke-miterlimit="10" x1="3.2" y1="21.5" x2="3.3" y2="32.8"/>
					<line fill="none" stroke="#F69175" stroke-width="0.1" stroke-miterlimit="10" x1="5.1" y1="21.5" x2="5.3" y2="32.8"/>
					<line fill="none" stroke="#F69175" stroke-width="0.1" stroke-miterlimit="10" x1="7.1" y1="21.5" x2="7.2" y2="32.8"/>
					<line fill="none" stroke="#F69175" stroke-width="0.1" stroke-miterlimit="10" x1="9" y1="21.5" x2="9.2" y2="32.8"/>
				</g>
				<g>
					<line fill="none" stroke="#F69175" stroke-width="0.1" stroke-miterlimit="10" x1="4.2" y1="22.5" x2="4.3" y2="33.8"/>
					<line fill="none" stroke="#F69175" stroke-width="0.1" stroke-miterlimit="10" x1="6.1" y1="22.5" x2="6.3" y2="33.8"/>
					<line fill="none" stroke="#F69175" stroke-width="0.1" stroke-miterlimit="10" x1="8.1" y1="22.5" x2="8.2" y2="33.8"/>
					<line fill="none" stroke="#F69175" stroke-width="0.1" stroke-miterlimit="10" x1="10" y1="22.6" x2="10.2" y2="33.8"/>
				</g>
			</g>
		</g>
		<g clip-path="url(#SVGID_1_)">
			<defs>
				
					<ellipse id="SVGID_15_" transform="matrix(-0.7071 0.7071 -0.7071 -0.7071 22.5566 20.4159)" cx="7.1" cy="14.9" rx="1.5" ry="1.5"/>
			</defs>
			<clipPath id="SVGID_4_">
				<use xlink:href="#SVGID_15_"  overflow="visible"/>
			</clipPath>
			<g clip-path="url(#SVGID_4_)">
				<g>
					
						<line fill="none" stroke="#F69175" stroke-width="9.077743e-002" stroke-miterlimit="10" x1="7.7" y1="12.5" x2="4.8" y2="15.5"/>
					<line fill="none" stroke="#F69175" stroke-width="9.077743e-002" stroke-miterlimit="10" x1="8.2" y1="13" x2="5.3" y2="16"/>
					
						<line fill="none" stroke="#F69175" stroke-width="9.077743e-002" stroke-miterlimit="10" x1="8.7" y1="13.5" x2="5.8" y2="16.5"/>
					<line fill="none" stroke="#F69175" stroke-width="9.077743e-002" stroke-miterlimit="10" x1="9.2" y1="14" x2="6.3" y2="17"/>
				</g>
				<g>
					<line fill="none" stroke="#F69175" stroke-width="9.077743e-002" stroke-miterlimit="10" x1="8" y1="12.8" x2="5" y2="15.7"/>
					
						<line fill="none" stroke="#F69175" stroke-width="9.077743e-002" stroke-miterlimit="10" x1="8.5" y1="13.3" x2="5.5" y2="16.2"/>
					<line fill="none" stroke="#F69175" stroke-width="9.077743e-002" stroke-miterlimit="10" x1="9" y1="13.8" x2="6" y2="16.7"/>
					
						<line fill="none" stroke="#F69175" stroke-width="9.077743e-002" stroke-miterlimit="10" x1="9.4" y1="14.3" x2="6.5" y2="17.2"/>
				</g>
			</g>
			<g clip-path="url(#SVGID_4_)">
				<g>
					
						<line fill="none" stroke="#F69175" stroke-width="3.631097e-002" stroke-miterlimit="10" x1="9" y1="13.7" x2="4.9" y2="13.7"/>
					
						<line fill="none" stroke="#F69175" stroke-width="3.631097e-002" stroke-miterlimit="10" x1="9" y1="14.4" x2="4.9" y2="14.4"/>
					
						<line fill="none" stroke="#F69175" stroke-width="3.631097e-002" stroke-miterlimit="10" x1="9" y1="15.1" x2="4.9" y2="15.1"/>
					
						<line fill="none" stroke="#F69175" stroke-width="3.631097e-002" stroke-miterlimit="10" x1="9" y1="15.8" x2="4.9" y2="15.8"/>
				</g>
				<g>
					
						<line fill="none" stroke="#F69175" stroke-width="3.631097e-002" stroke-miterlimit="10" x1="8.7" y1="14" x2="4.6" y2="14.1"/>
					
						<line fill="none" stroke="#F69175" stroke-width="3.631097e-002" stroke-miterlimit="10" x1="8.7" y1="14.7" x2="4.6" y2="14.8"/>
					
						<line fill="none" stroke="#F69175" stroke-width="3.631097e-002" stroke-miterlimit="10" x1="8.7" y1="15.5" x2="4.6" y2="15.5"/>
					
						<line fill="none" stroke="#F69175" stroke-width="3.631097e-002" stroke-miterlimit="10" x1="8.7" y1="16.2" x2="4.6" y2="16.2"/>
				</g>
			</g>
		</g>
	</g>
</g>
</svg>
