<?xml version="1.0" encoding="utf-8"?>
<!-- Generator: Adobe Illustrator 18.1.1, SVG Export Plug-In . SVG Version: 6.00 Build 0)  -->
<svg version="1.1" id="Layer_1" xmlns="http://www.w3.org/2000/svg" xmlns:xlink="http://www.w3.org/1999/xlink" x="0px" y="0px"
	 viewBox="0 0 22.8 22.8" enable-background="new 0 0 22.8 22.8" xml:space="preserve">
<path fill="#F69175" d="M8.1,0.8L8.1,0.8C8,0.4,8.6,0.2,8.8,0.6l0,0C8.9,1,9.5,0.9,9.5,0.5l0,0c0-0.5,0.6-0.5,0.7-0.1l0,0
	c0.1,0.4,0.7,0.4,0.7-0.1v0c0-0.5,0.7-0.5,0.7,0v0c0,0.4,0.6,0.5,0.7,0l0,0c0.1-0.4,0.7-0.4,0.7,0.1l0,0c0,0.4,0.6,0.5,0.7,0.1l0,0
	c0.1-0.4,0.8-0.3,0.7,0.2l0,0C14.4,1.2,15,1.4,15.2,1l0,0c0.2-0.4,0.8-0.2,0.7,0.3l0,0c-0.1,0.4,0.4,0.7,0.6,0.3l0,0
	c0.2-0.4,0.8-0.1,0.6,0.4l0,0c-0.2,0.4,0.3,0.7,0.6,0.4l0,0C18,2,18.6,2.4,18.3,2.8l0,0c-0.2,0.4,0.2,0.8,0.5,0.5l0,0
	c0.3-0.3,0.8,0.2,0.5,0.5l0,0c-0.3,0.3,0.1,0.8,0.5,0.5l0,0c0.4-0.3,0.8,0.3,0.4,0.6l0,0c-0.3,0.3,0,0.8,0.4,0.6l0,0
	c0.4-0.2,0.7,0.4,0.4,0.6l0,0c-0.4,0.2-0.1,0.8,0.3,0.6l0,0c0.4-0.1,0.7,0.5,0.3,0.7l0,0c-0.4,0.2-0.2,0.8,0.2,0.7l0,0
	c0.4-0.1,0.6,0.6,0.2,0.7l0,0c-0.4,0.1-0.3,0.7,0.1,0.7l0,0c0.5,0,0.5,0.6,0.1,0.7l0,0c-0.4,0.1-0.4,0.7,0.1,0.7l0,0
	c0.5,0,0.5,0.7,0,0.7l0,0c-0.4,0-0.5,0.6,0,0.7l0,0c0.4,0.1,0.4,0.7-0.1,0.7h0c-0.4,0-0.5,0.6-0.1,0.7l0,0c0.4,0.1,0.3,0.8-0.2,0.7
	l0,0c-0.4-0.1-0.6,0.5-0.2,0.7l0,0c0.4,0.2,0.2,0.8-0.3,0.7l0,0c-0.4-0.1-0.7,0.4-0.3,0.6l0,0c0.4,0.2,0.1,0.8-0.4,0.6l0,0
	c-0.4-0.2-0.7,0.3-0.4,0.6l0,0c0.3,0.3-0.1,0.8-0.4,0.6l0,0c-0.4-0.2-0.8,0.2-0.5,0.5l0,0c0.3,0.3-0.2,0.8-0.5,0.5l0,0
	c-0.3-0.3-0.8,0.1-0.5,0.5l0,0c0.3,0.4-0.3,0.8-0.6,0.4l0,0c-0.3-0.3-0.8,0-0.6,0.4l0,0c0.2,0.4-0.4,0.7-0.6,0.4l0,0
	c-0.2-0.4-0.8-0.1-0.6,0.3l0,0c0.1,0.4-0.5,0.7-0.7,0.3l0,0c-0.2-0.4-0.8-0.2-0.7,0.2l0,0c0.1,0.4-0.6,0.6-0.7,0.2l0,0
	c-0.1-0.4-0.7-0.3-0.7,0.1l0,0c0,0.5-0.6,0.5-0.7,0.1l0,0c-0.1-0.4-0.7-0.4-0.7,0.1v0c0,0.5-0.7,0.5-0.7,0v0c0-0.4-0.6-0.5-0.7,0
	l0,0c-0.1,0.4-0.7,0.4-0.7-0.1l0,0c0-0.4-0.6-0.5-0.7-0.1l0,0c-0.1,0.4-0.8,0.3-0.7-0.2l0,0c0.1-0.4-0.5-0.6-0.7-0.2l0,0
	c-0.2,0.4-0.8,0.2-0.7-0.3l0,0c0.1-0.4-0.4-0.7-0.6-0.3l0,0c-0.2,0.4-0.8,0.1-0.6-0.4l0,0c0.2-0.4-0.3-0.7-0.6-0.4l0,0
	c-0.3,0.3-0.8-0.1-0.6-0.4l0,0c0.2-0.4-0.2-0.8-0.5-0.5l0,0c-0.3,0.3-0.8-0.2-0.5-0.5l0,0c0.3-0.3-0.1-0.8-0.5-0.5l0,0
	c-0.4,0.3-0.8-0.3-0.4-0.6l0,0c0.3-0.3,0-0.8-0.4-0.6l0,0c-0.4,0.2-0.7-0.4-0.4-0.6l0,0C2,16.4,1.8,15.9,1.4,16l0,0
	c-0.4,0.1-0.7-0.5-0.3-0.7l0,0c0.4-0.2,0.2-0.8-0.2-0.7l0,0c-0.4,0.1-0.6-0.6-0.2-0.7l0,0c0.4-0.1,0.3-0.7-0.1-0.7l0,0
	c-0.5,0-0.5-0.6-0.1-0.7l0,0c0.4-0.1,0.4-0.7-0.1-0.7l0,0c-0.5,0-0.5-0.7,0-0.7l0,0c0.4,0,0.5-0.6,0-0.7l0,0
	C-0.1,10.3,0,9.6,0.5,9.7h0C0.9,9.7,1,9.1,0.6,9l0,0C0.2,8.8,0.3,8.2,0.8,8.3l0,0C1.2,8.3,1.4,7.8,1,7.6l0,0
	C0.6,7.4,0.9,6.8,1.3,6.9l0,0C1.7,7,2,6.5,1.6,6.2l0,0C1.2,6,1.5,5.4,2,5.6l0,0C2.3,5.8,2.7,5.3,2.4,5l0,0C2,4.7,2.4,4.2,2.8,4.4
	l0,0c0.4,0.2,0.8-0.2,0.5-0.5l0,0C3,3.6,3.4,3.1,3.8,3.4l0,0c0.3,0.3,0.8-0.1,0.5-0.5l0,0C4.1,2.5,4.6,2.1,4.9,2.4l0,0
	c0.3,0.3,0.8,0,0.6-0.4l0,0C5.3,1.6,5.8,1.3,6.1,1.7l0,0C6.3,2,6.9,1.8,6.7,1.4l0,0C6.6,0.9,7.2,0.7,7.4,1.1l0,0
	C7.6,1.5,8.2,1.2,8.1,0.8z"/>
<text transform="matrix(0.9446 -0.3284 0.3284 0.9446 5.0753 12.3174)"><tspan x="0" y="0" fill="#F3E8DF" font-family="'MHeiHK-Bold'" font-size="6">阿</tspan><tspan x="6" y="0" fill="#F3E8DF" font-family="'Avenir-Roman'" font-size="6">SA</tspan><tspan x="0.3" y="7.2" fill="#F3E8DF" font-family="'MHeiHK-Bold'" font-size="6">推介</tspan></text>
</svg>
