<?xml version="1.0" encoding="utf-8"?>
<!-- Generator: Adobe Illustrator 18.1.1, SVG Export Plug-In . SVG Version: 6.00 Build 0)  -->
<svg version="1.1" id="Layer_1" xmlns="http://www.w3.org/2000/svg" xmlns:xlink="http://www.w3.org/1999/xlink" x="0px" y="0px"
	 viewBox="0 0 4.9 4.9" enable-background="new 0 0 4.9 4.9" xml:space="preserve">
<path fill="#C9B28A" d="M2,1.8C1.9,1.9,1.6,2.1,1.9,2.3C2.1,2.6,2.4,2.9,2.5,3c0.1,0.1,0.3,0.2,0.5,0c0.2-0.2,0.2-0.2,0.3-0.1
	C3.5,2.9,3.7,3,3.8,3.2c0.1,0.1,0.1,0.2,0,0.3S3.6,3.8,3.3,3.8C3.1,3.9,3,3.9,2.7,3.7c-0.2-0.1-1.1-1-1.3-1.2C1.2,2.4,1.1,2.2,1,1.9
	C1,1.7,1,1.5,1.2,1.3S1.4,1,1.5,1c0.1,0,0.1,0,0.3,0.1C1.9,1.2,2,1.4,2.1,1.5C2.1,1.6,2.1,1.7,2,1.8z"/>
<circle fill="none" stroke="#C9B28A" stroke-width="0.35" stroke-miterlimit="10" cx="2.4" cy="2.4" r="2.3"/>
</svg>
