<?xml version="1.0" encoding="utf-8"?>
<!-- Generator: Adobe Illustrator 18.1.1, SVG Export Plug-In . SVG Version: 6.00 Build 0)  -->
<svg version="1.1" id="Layer_1" xmlns="http://www.w3.org/2000/svg" xmlns:xlink="http://www.w3.org/1999/xlink" x="0px" y="0px"
	 viewBox="0 0 44.8 6" enable-background="new 0 0 44.8 6" xml:space="preserve">
<g>
	<polygon fill="#808285" points="3.2,0 4.1,2 6.3,2.3 4.8,3.8 5.1,6 3.2,5 1.2,6 1.6,3.8 0,2.3 2.2,2 	"/>
	<polygon fill="#808285" points="12.8,0 13.8,2 15.9,2.3 14.4,3.8 14.7,6 12.8,5 10.8,6 11.2,3.8 9.6,2.3 11.8,2 	"/>
	<polygon fill="#808285" points="22.4,0 23.4,2 25.6,2.3 24,3.8 24.3,6 22.4,5 20.4,6 20.8,3.8 19.2,2.3 21.4,2 	"/>
	<polygon fill="#808285" points="32,0 33,2 35.2,2.3 33.6,3.8 33.9,6 32,5 30,6 30.4,3.8 28.8,2.3 31,2 	"/>
	<polygon fill="#808285" points="41.6,0 42.6,2 44.8,2.3 43.2,3.8 43.6,6 41.6,5 39.6,6 40,3.8 38.4,2.3 40.6,2 	"/>
</g>
</svg>
