<?xml version="1.0" encoding="UTF-8"?>
<svg enable-background="new 0 0 112.4 12.3" version="1.1" viewBox="0 0 112.4 12.3" xml:space="preserve" xmlns="http://www.w3.org/2000/svg">
				<g fill="#414446">
					<rect x="97.7" y=".5" width=".9" height="11.5"/>
					<polygon points="8.3 11.2 0.9 11.2 0.9 6.6 7.4 6.6 7.4 5.8 0 5.8 0 12 8.3 12"/>
					<rect y=".5" width="8.2" height=".8"/>
					<polygon points="20.4 10.5 12.5 0.5 11.7 0.5 11.7 12 12.5 12 12.5 1.8 20.6 12 21.3 12 21.3 0.5 20.4 0.5"/>
					<polygon points="25.7 12 26.6 12 26.6 6.8 33.1 6.8 33.1 6 26.6 6 26.6 1.3 33.8 1.3 33.8 0.5 25.7 0.5"/>
					<polygon points="39.6 0.4 34.3 12 35.1 12 35.8 10.5 36.3 9.5 36.6 8.8 38.1 5.5 38.1 5.5 40 1.4 41.8 5.3 41.8 5.3 44.2 10.5 44.2 10.5 44.8 12 45.8 12 40.4 0.4"/>
					<polygon points="57.3 10.5 49.3 0.5 48.5 0.5 48.5 12 49.4 12 49.4 1.8 57.4 12 58.1 12 58.1 0.5 57.3 0.5"/>
					<polygon points="61 1.3 65 1.3 65 12 65.9 12 65.9 1.3 69.9 1.3 69.9 0.5 61 0.5"/>
					<path d="m76.6 5.8c-2.7-0.6-3.3-1.3-3.3-2.5s1.1-2.2 2.8-2.2c1.3 0 2.3 0.4 3.4 1.3l0.5-0.7c-1.2-0.9-2.3-1.4-3.9-1.4-2.1 0-3.7 1.3-3.7 3s1.1 2.7 3.9 3.2c2.6 0.5 3.2 1.2 3.2 2.4 0 1.3-1.2 2.3-2.9 2.3s-2.9-0.5-4.1-1.7l-0.6 0.6c1.4 1.2 2.8 1.8 4.6 1.8 2.2 0 3.8-1.3 3.8-3.1 0.1-1.5-1-2.4-3.7-3z"/>
					<polygon points="111.6 0.5 111.6 10.5 103.7 0.5 102.9 0.5 102.9 12 103.7 12 103.7 1.8 111.8 12 112.4 12 112.4 0.5"/>
				</g>
	<g fill="#C9B28A">
		<rect x="84" y=".5" width="1" height="11.5"/>
		<polygon points="86.6 6.2 93.5 12.3 93.5 0"/>
	</g>
</svg>
