<?xml version="1.0" encoding="UTF-8"?>
<svg enable-background="new 0 0 162.2 17.8" version="1.1" viewBox="0 0 162.2 17.8" xml:space="preserve" xmlns="http://www.w3.org/2000/svg">
				<g fill="#414446">
					<rect x="140.9" y=".7" width="1.2" height="16.6"/>
					<polygon points="11.9 16.2 1.2 16.2 1.2 9.5 10.7 9.5 10.7 8.4 0 8.4 0 17.3 11.9 17.3"/>
					<rect y=".7" width="11.8" height="1.1"/>
					<polygon points="29.5 15.1 18.1 0.7 16.9 0.7 16.9 17.3 18.1 17.3 18.1 2.6 29.7 17.3 30.7 17.3 30.7 0.7 29.5 0.7"/>
					<polygon points="37.1 17.3 38.3 17.3 38.3 9.8 47.7 9.8 47.7 8.7 38.3 8.7 38.3 1.9 48.8 1.9 48.8 0.7 37.1 0.7"/>
					<polygon points="57.1 0.6 49.4 17.3 50.7 17.3 51.6 15.2 52.3 13.7 52.8 12.7 54.9 8 54.9 8 57.7 2 60.3 7.6 60.3 7.6 63.8 15.2 63.7 15.2 64.7 17.3 66 17.3 58.3 0.6"/>
					<polygon points="82.6 15.1 71.2 0.7 70 0.7 70 17.3 71.2 17.3 71.2 2.6 82.9 17.3 83.8 17.3 83.8 0.7 82.6 0.7"/>
					<polygon points="88 1.9 93.8 1.9 93.8 17.3 95 17.3 95 1.9 100.8 1.9 100.8 0.7 88 0.7"/>
					<path d="m110.5 8.4c-3.9-0.8-4.8-1.9-4.8-3.6s1.6-3.1 4-3.1c1.8 0 3.4 0.5 4.9 1.9l0.8-1c-1.7-1.3-3.3-2-5.7-2-3.1 0-5.3 1.9-5.3 4.4s1.6 3.9 5.6 4.7c3.8 0.8 4.7 1.8 4.7 3.5 0 1.9-1.7 3.3-4.2 3.3-2.4 0-4.1-0.8-5.9-2.5l-0.8 0.9c2 1.8 4 2.7 6.7 2.7 3.2 0 5.5-1.8 5.5-4.5 0-2.6-1.7-3.9-5.5-4.7z"/>
					<polygon points="161 0.7 161 15.1 149.6 0.7 148.4 0.7 148.4 17.3 149.6 17.3 149.6 2.6 161.3 17.3 162.2 17.3 162.2 0.7"/>
				</g>
	<g fill="#ADA591">
		<rect x="121.2" y=".7" width="1.4" height="16.6"/>
		<polygon points="124.9 8.9 134.9 17.8 134.9 0"/>
	</g>
</svg>
